<?xml version="1.0" encoding="UTF-8"?>
<svg id="Calque_2" data-name="Calque 2" xmlns="http://www.w3.org/2000/svg" version="1.1" viewBox="0 0 29.6 29.6">
  <defs>
    <style>
      .cls-1 {
        fill: #000;
      }

      .cls-1, .cls-2 {
        stroke: #000;
        stroke-miterlimit: 10;
      }

      .cls-2 {
        fill: none;
        stroke-width: 2px;
      }
    </style>
  </defs>
  <circle class="cls-2" cx="14.8" cy="14.8" r="13.8"/>
  <g id="Object">
    <path class="cls-1" d="M14.7,14.6c-2.8,0-5-2.2-5-5s2.2-5,5-5,5,2.2,5,5-2.2,5-5,5h0ZM14.7,5.2c-2.5,0-4.5,2-4.5,4.4s2,4.4,4.4,4.4,4.4-2,4.4-4.4-2-4.4-4.4-4.4Z"/>
    <path class="cls-1" d="M21,25h-12.3c-.2,0-.3-.1-.3-.3v-4.2c0-3.6,2.9-6.4,6.4-6.4s6.4,2.9,6.4,6.4v4.2c0,.2-.1.3-.3.3ZM9,24.5h11.7v-4c0-3.2-2.6-5.9-5.9-5.9s-5.9,2.6-5.9,5.9v4Z"/>
  </g>
</svg>