<?xml version="1.0" encoding="UTF-8"?><svg id="Calque_2" xmlns="http://www.w3.org/2000/svg" viewBox="0 0 12.88 20.44"><defs><style>.cls-1{fill:#000;stroke-width:0px;}</style></defs><g id="Object"><path class="cls-1" d="M6.32,10.03c-2.77,0-5.02-2.25-5.02-5.02S3.55,0,6.32,0s5.02,2.25,5.02,5.02-2.25,5.02-5.02,5.02ZM6.32.57C3.87.57,1.87,2.56,1.87,5.02s2,4.45,4.45,4.45,4.45-2,4.45-4.45S8.77.57,6.32.57Z"/><path class="cls-1" d="M12.6,20.44H.28c-.16,0-.28-.13-.28-.28v-4.25c0-3.55,2.89-6.44,6.44-6.44s6.44,2.89,6.44,6.44v4.25c0,.16-.13.28-.28.28ZM.57,19.88h11.75v-3.97c0-3.24-2.63-5.87-5.87-5.87S.57,12.67.57,15.91v3.97Z"/></g></svg>